# xmcd
#
# Track frame offsets:
#	150
#	17552
#	36984
#	52956
#	70438
#	87630
#	108157
#	123474
#	134871
#	153243
#
# Disc length: 2201 seconds
#
# Revision: 1
# Processed by: cddbd v1.5.2PL0 Copyright (c) Steve Scherf et al.
# Submitted via: audiograbber 1.83.01
#
DISCID=8b08970a
DTITLE=Willie Nelson - Stardust
DYEAR=1978
DGENRE=Country
TTITLE0=Stardust
TTITLE1=Georgia On My Mind
TTITLE2=Blue Skies
TTITLE3=All Of Me
TTITLE4=Unchained Melody
TTITLE5=September Song
TTITLE6=Moonlight In Vermont
TTITLE7=Don't Get Around Much Anymore
TTITLE8=Someone To Watch Over Me
TTITLE9=On The Sunny Side Of The Street
EXTD=
EXTT0=
EXTT1=
EXTT2=
EXTT3=
EXTT4=
EXTT5=
EXTT6=
EXTT7=
EXTT8=
EXTT9=
PLAYORDER=
